<svg xmlns="http://www.w3.org/2000/svg" viewBox="0 0 1400 850"><defs><linearGradient id="sky" x1="0" y1="0" x2="0" y2="1"><stop stop-color="#f7b267"/><stop offset=".55" stop-color="#31506a"/><stop offset="1" stop-color="#14283a"/></linearGradient><linearGradient id="rock" x1="0" y1="0" x2="1" y2="1"><stop stop-color="#c5925a"/><stop offset="1" stop-color="#6d4d32"/></linearGradient></defs><rect width="1400" height="850" fill="url(#sky)"/><circle cx="1130" cy="145" r="70" fill="#ffd66b" opacity=".9"/><path d="M0 520 C210 400 310 500 480 360 C650 220 820 450 1000 305 C1180 165 1280 320 1400 240 L1400 850 L0 850Z" fill="#193b34" opacity=".9"/><path d="M0 610 C280 540 410 600 610 500 C850 380 1030 560 1400 430 L1400 850 L0 850Z" fill="#254c3f"/><path d="M70 850 L340 210 L620 850Z" fill="url(#rock)"/><path d="M325 240 L585 850 L900 850 L650 330Z" fill="#8b643f"/><path d="M285 390 L650 390 L682 430 L260 430Z" fill="#e0b079" opacity=".9"/><path d="M245 505 L690 505 L720 548 L220 548Z" fill="#e0b079" opacity=".9"/><path d="M205 630 L760 630 L790 678 L185 678Z" fill="#e0b079" opacity=".9"/><path d="M170 760 L840 760 L885 820 L150 820Z" fill="#e0b079" opacity=".9"/><text x="70" y="120" fill="#fff7e8" font-size="76" font-family="Georgia,serif" font-weight="700">Indian Staircase</text><text x="75" y="178" fill="#fff7e8" font-size="30" font-family="Arial">sandstone scramble • big views • adventure first</text></svg>