<svg xmlns="http://www.w3.org/2000/svg" viewBox="0 0 1400 850"><defs><linearGradient id="s" x1="0" y1="0" x2="0" y2="1"><stop stop-color="#d7a75c"/><stop offset=".5" stop-color="#355d70"/><stop offset="1" stop-color="#10283d"/></linearGradient></defs><rect width="1400" height="850" fill="url(#s)"/><circle cx="1140" cy="150" r="68" fill="#f5cf6b"/><path d="M0 530 C230 400 390 490 570 335 C760 175 900 420 1080 295 C1230 190 1320 270 1400 220 L1400 850 L0 850Z" fill="#173b2e"/><path d="M0 650 C260 560 440 640 700 500 C950 365 1120 560 1400 450 L1400 850 L0 850Z" fill="#315a45"/><path d="M0 735 C190 690 330 730 500 685 C720 625 870 725 1110 660 C1230 628 1320 650 1400 630 L1400 850 L0 850Z" fill="#203747"/><path d="M0 780 C220 720 415 770 620 715 C820 662 1010 745 1400 675 L1400 850 L0 850Z" fill="#486c82" opacity=".85"/><text x="70" y="115" fill="#fff7e8" font-size="72" font-family="Georgia" font-weight="700">Blue Heron Loop</text><text x="74" y="170" fill="#fff7e8" font-size="28" font-family="Arial">Big South Fork • river gorge • mining history</text></svg>