<svg xmlns="http://www.w3.org/2000/svg" viewBox="0 0 1400 850"><defs><linearGradient id="sky" x1="0" y1="0" x2="0" y2="1"><stop stop-color="#e6b15a"/><stop offset="0.45" stop-color="#466b79"/><stop offset="1" stop-color="#173447"/></linearGradient></defs><rect width="1400" height="850" fill="url(#sky)"/><circle cx="1130" cy="145" r="70" fill="#ffd66b"/><path d="M0 550 C220 420 370 520 530 360 C720 170 870 430 1040 310 C1200 195 1290 275 1400 210 L1400 850 L0 850Z" fill="#193b34"/><path d="M0 660 C260 530 470 640 720 500 C980 350 1140 520 1400 430 L1400 850 L0 850Z" fill="#2e5745"/><path d="M250 750 C310 540 450 430 610 430 C780 430 900 545 930 750 L810 750 C775 625 705 545 610 545 C515 545 445 625 410 750Z" fill="#b57942"/><path d="M180 750 L1020 750 L1120 850 L70 850Z" fill="#5a3a25"/><text x="70" y="115" fill="#fff7e8" font-size="72" font-family="Georgia" font-weight="700">Kentucky Adventure</text><text x="74" y="170" fill="#fff7e8" font-size="28" font-family="Arial">sandstone arches • forested ridges • Red River Gorge</text></svg>