<svg xmlns="http://www.w3.org/2000/svg" viewBox="0 0 1400 850"><defs><linearGradient id="s" x1="0" y1="0" x2="0" y2="1"><stop stop-color="#9fc0d4"/><stop offset=".45" stop-color="#2e5f4a"/><stop offset="1" stop-color="#153545"/></linearGradient></defs><rect width="1400" height="850" fill="url(#s)"/><path d="M0 360 C260 260 460 335 680 240 C900 145 1100 260 1400 170 L1400 850 L0 850Z" fill="#1f4a39"/><path d="M0 620 C230 570 390 630 600 575 C800 520 980 615 1400 540 L1400 850 L0 850Z" fill="#4e7f89"/><path d="M470 605 C535 480 705 450 825 520 C910 570 905 675 790 720 C675 768 535 730 470 605Z" fill="#8a6b49"/><text x="70" y="120" fill="#fff7e8" font-size="72" font-family="Georgia" font-weight="700">Jump Rock</text><text x="74" y="175" fill="#fff7e8" font-size="28" font-family="Arial">river cooldown • swimming hole • optional jump</text></svg>