<svg xmlns="http://www.w3.org/2000/svg" viewBox="0 0 1400 850"><rect width="1400" height="850" fill="#23445a"/><circle cx="1110" cy="145" r="75" fill="#f2c45b"/><path d="M0 540 C230 430 390 500 550 365 C730 215 910 430 1060 300 C1215 185 1315 260 1400 210 L1400 850 L0 850Z" fill="#193b34"/><path d="M150 745 C210 515 370 405 560 405 C755 405 895 525 930 745 L800 745 C760 610 680 530 560 530 C440 530 360 610 320 745Z" fill="#b57942"/><path d="M100 745 L1020 745 L1120 850 L0 850Z" fill="#5a3a25"/><text x="70" y="115" fill="#fff7e8" font-size="72" font-family="Georgia" font-weight="700">Natural Bridge</text><text x="74" y="170" fill="#fff7e8" font-size="28" font-family="Arial">sunset mission • sandstone arch • Kentucky forest</text></svg>